<svg xmlns="http://www.w3.org/2000/svg" width="1100" height="720" viewBox="0 0 1100 720">
<rect width="100%" height="100%" fill="white" />
<text x="550.0" y="32" text-anchor="middle" font-size="24" font-family="Arial">HELLASWAG compression efficiency</text>
<text x="550.0" y="56" text-anchor="middle" font-size="14" font-family="Arial" fill="#555">x = GB saved, y = accuracy retained vs raw baseline</text>
<line x1="90" y1="600" x2="840" y2="600" stroke="black" stroke-width="2" />
<line x1="90" y1="70" x2="90" y2="600" stroke="black" stroke-width="2" />
<text x="465.0" y="694" text-anchor="middle" font-size="16" font-family="Arial">Storage saved (GB)</text>
<text x="28" y="52" font-size="16" font-family="Arial">Retained (%)</text>
<line x1="90" y1="600.0" x2="840" y2="600.0" stroke="#dfdfdf" stroke-width="1" />
<text x="78" y="605.0" text-anchor="end" font-size="13" font-family="Arial">58</text>
<line x1="90" y1="494.0" x2="840" y2="494.0" stroke="#dfdfdf" stroke-width="1" />
<text x="78" y="499.0" text-anchor="end" font-size="13" font-family="Arial">69</text>
<line x1="90" y1="388.00000000000006" x2="840" y2="388.00000000000006" stroke="#dfdfdf" stroke-width="1" />
<text x="78" y="393.00000000000006" text-anchor="end" font-size="13" font-family="Arial">80</text>
<line x1="90" y1="281.99999999999994" x2="840" y2="281.99999999999994" stroke="#dfdfdf" stroke-width="1" />
<text x="78" y="286.99999999999994" text-anchor="end" font-size="13" font-family="Arial">90</text>
<line x1="90" y1="176.0" x2="840" y2="176.0" stroke="#dfdfdf" stroke-width="1" />
<text x="78" y="181.0" text-anchor="end" font-size="13" font-family="Arial">101</text>
<line x1="90" y1="70.0" x2="840" y2="70.0" stroke="#dfdfdf" stroke-width="1" />
<text x="78" y="75.0" text-anchor="end" font-size="13" font-family="Arial">112</text>
<line x1="90.0" y1="70" x2="90.0" y2="600" stroke="#ececec" stroke-width="1" />
<text x="90.0" y="624" text-anchor="middle" font-size="13" font-family="Arial">3.0</text>
<line x1="240.0" y1="70" x2="240.0" y2="600" stroke="#ececec" stroke-width="1" />
<text x="240.0" y="624" text-anchor="middle" font-size="13" font-family="Arial">7.8</text>
<line x1="390.0" y1="70" x2="390.0" y2="600" stroke="#ececec" stroke-width="1" />
<text x="390.0" y="624" text-anchor="middle" font-size="13" font-family="Arial">12.7</text>
<line x1="540.0" y1="70" x2="540.0" y2="600" stroke="#ececec" stroke-width="1" />
<text x="540.0" y="624" text-anchor="middle" font-size="13" font-family="Arial">17.6</text>
<line x1="690.0" y1="70" x2="690.0" y2="600" stroke="#ececec" stroke-width="1" />
<text x="690.0" y="624" text-anchor="middle" font-size="13" font-family="Arial">22.5</text>
<line x1="840.0" y1="70" x2="840.0" y2="600" stroke="#ececec" stroke-width="1" />
<text x="840.0" y="624" text-anchor="middle" font-size="13" font-family="Arial">27.4</text>
<line x1="90" y1="187.77777777777777" x2="840" y2="187.77777777777777" stroke="#999" stroke-width="1.5" stroke-dasharray="6 4" />
<text x="832" y="179.77777777777777" text-anchor="end" font-size="12" font-family="Arial" fill="#666">raw baseline = 100%</text>
<circle cx="712.8663302263451" cy="190.16016808238982" r="6" fill="#2a5b8a" />
<text x="722.8663302263451" y="180.16016808238982" font-size="11" font-family="Arial" fill="#2a5b8a">gemma-2-9b | i8-channel</text>
<rect x="707.0778272499824" y="183.32006943392366" width="12" height="12" fill="#2a5b8a" />
<text x="723.0778272499824" y="179.32006943392366" font-size="11" font-family="Arial" fill="#2a5b8a">gemma-2-9b | i8-tensor</text>
<polygon points="824.6479814005291,201.2370646287855 831.6479814005291,208.2370646287855 824.6479814005291,215.2370646287855 817.6479814005291,208.2370646287855" fill="#2a5b8a" />
<text x="834.6479814005291" y="198.2370646287855" font-size="11" font-family="Arial" fill="#2a5b8a">gemma-2-9b | i4-grouped</text>
<circle cx="213.45543313580225" cy="190.7371379067747" r="6" fill="#d17c2f" />
<text x="223.45543313580225" y="180.7371379067747" font-size="11" font-family="Arial" fill="#d17c2f">llama-3-8b | i8-channel</text>
<rect x="207.6274956669378" y="207.85015094677982" width="12" height="12" fill="#d17c2f" />
<text x="223.6274956669378" y="203.85015094677982" font-size="11" font-family="Arial" fill="#d17c2f">llama-3-8b | i8-tensor</text>
<polygon points="314.22053634088695,174.85764223516918 321.22053634088695,181.85764223516918 314.22053634088695,188.85764223516918 307.22053634088695,181.85764223516918" fill="#d17c2f" />
<text x="324.22053634088695" y="171.85764223516918" font-size="11" font-family="Arial" fill="#d17c2f">llama-3-8b | i4-grouped</text>
<circle cx="202.28216976687617" cy="187.5112535538667" r="6" fill="#2e7d5a" />
<text x="212.28216976687617" y="177.5112535538667" font-size="11" font-family="Arial" fill="#2e7d5a">mistral-7b | i8-channel</text>
<rect x="196.44331024193264" y="181.5112535538667" width="12" height="12" fill="#2e7d5a" />
<text x="212.44331024193264" y="177.5112535538667" font-size="11" font-family="Arial" fill="#2e7d5a">mistral-7b | i8-tensor</text>
<polygon points="297.79376399791056,197.1817410665234 304.79376399791056,204.1817410665234 297.79376399791056,211.1817410665234 290.79376399791056,204.1817410665234" fill="#2e7d5a" />
<text x="307.79376399791056" y="194.1817410665234" font-size="11" font-family="Arial" fill="#2e7d5a">mistral-7b | i4-grouped</text>
<circle cx="105.3520185994709" cy="170.90184767471737" r="6" fill="#8b3d88" />
<text x="115.3520185994709" y="160.90184767471737" font-size="11" font-family="Arial" fill="#8b3d88">phi-3 | i8-channel</text>
<rect x="99.47186096502983" y="181.10263211652108" width="12" height="12" fill="#8b3d88" />
<text x="115.47186096502983" y="177.10263211652108" font-size="11" font-family="Arial" fill="#8b3d88">phi-3 | i8-tensor</text>
<polygon points="155.3669317446749,183.20721758695868 162.3669317446749,190.20721758695868 155.3669317446749,197.20721758695868 148.3669317446749,190.20721758695868" fill="#8b3d88" />
<text x="165.3669317446749" y="180.20721758695868" font-size="11" font-family="Arial" fill="#8b3d88">phi-3 | i4-grouped</text>
<text x="864" y="76" font-size="16" font-family="Arial">Models</text>
<circle cx="872" cy="92" r="6" fill="#2a5b8a" />
<text x="886" y="96" font-size="13" font-family="Arial">gemma-2-9b</text>
<circle cx="872" cy="120" r="6" fill="#d17c2f" />
<text x="886" y="124" font-size="13" font-family="Arial">llama-3-8b</text>
<circle cx="872" cy="148" r="6" fill="#2e7d5a" />
<text x="886" y="152" font-size="13" font-family="Arial">mistral-7b</text>
<circle cx="872" cy="176" r="6" fill="#8b3d88" />
<text x="886" y="180" font-size="13" font-family="Arial">phi-3</text>
<text x="864" y="228" font-size="16" font-family="Arial">Quantizers</text>
<circle cx="872" cy="243" r="6" fill="#444" />
<text x="886" y="248" font-size="13" font-family="Arial">i8-channel</text>
<rect x="866" y="269" width="12" height="12" fill="#444" />
<text x="886" y="280" font-size="13" font-family="Arial">i8-tensor</text>
<polygon points="872,300 879,307 872,314 865,307" fill="#444" />
<text x="886" y="312" font-size="13" font-family="Arial">i4-grouped</text>
</svg>