<svg xmlns="http://www.w3.org/2000/svg" width="1100" height="650" viewBox="0 0 1100 650">
<rect width="100%" height="100%" fill="white" />
<text x="550.0" y="30" text-anchor="middle" font-size="22" font-family="Arial">HELLASWAG quantized size vs accuracy</text>
<line x1="90" y1="560" x2="840" y2="560" stroke="black" stroke-width="2" />
<line x1="90" y1="60" x2="90" y2="560" stroke="black" stroke-width="2" />
<text x="35" y="45" font-size="16" font-family="Arial">Accuracy</text>
<text x="465.0" y="630" text-anchor="middle" font-size="16" font-family="Arial">Quantized model size (GB)</text>
<line x1="90" y1="560.0" x2="840" y2="560.0" stroke="#d0d0d0" stroke-width="1" />
<text x="78" y="565.0" text-anchor="end" font-size="14" font-family="Arial">0.0</text>
<line x1="90" y1="460.0" x2="840" y2="460.0" stroke="#d0d0d0" stroke-width="1" />
<text x="78" y="465.0" text-anchor="end" font-size="14" font-family="Arial">0.2</text>
<line x1="90" y1="360.0" x2="840" y2="360.0" stroke="#d0d0d0" stroke-width="1" />
<text x="78" y="365.0" text-anchor="end" font-size="14" font-family="Arial">0.4</text>
<line x1="90" y1="260.0" x2="840" y2="260.0" stroke="#d0d0d0" stroke-width="1" />
<text x="78" y="265.0" text-anchor="end" font-size="14" font-family="Arial">0.6</text>
<line x1="90" y1="160.0" x2="840" y2="160.0" stroke="#d0d0d0" stroke-width="1" />
<text x="78" y="165.0" text-anchor="end" font-size="14" font-family="Arial">0.8</text>
<line x1="90" y1="60.0" x2="840" y2="60.0" stroke="#d0d0d0" stroke-width="1" />
<text x="78" y="65.0" text-anchor="end" font-size="14" font-family="Arial">1.0</text>
<line x1="90.0" y1="60" x2="90.0" y2="560" stroke="#e0e0e0" stroke-width="1" />
<text x="90.0" y="585" text-anchor="middle" font-size="14" font-family="Arial">1.3</text>
<line x1="240.0" y1="60" x2="240.0" y2="560" stroke="#e0e0e0" stroke-width="1" />
<text x="240.0" y="585" text-anchor="middle" font-size="14" font-family="Arial">3.4</text>
<line x1="390.0" y1="60" x2="390.0" y2="560" stroke="#e0e0e0" stroke-width="1" />
<text x="390.0" y="585" text-anchor="middle" font-size="14" font-family="Arial">5.5</text>
<line x1="540.0" y1="60" x2="540.0" y2="560" stroke="#e0e0e0" stroke-width="1" />
<text x="540.0" y="585" text-anchor="middle" font-size="14" font-family="Arial">7.7</text>
<line x1="690.0000000000001" y1="60" x2="690.0000000000001" y2="560" stroke="#e0e0e0" stroke-width="1" />
<text x="690.0000000000001" y="585" text-anchor="middle" font-size="14" font-family="Arial">9.8</text>
<line x1="840.0" y1="60" x2="840.0" y2="560" stroke="#e0e0e0" stroke-width="1" />
<text x="840.0" y="585" text-anchor="middle" font-size="14" font-family="Arial">11.9</text>
<circle cx="872" cy="90" r="6" fill="#1f77b4" />
<text x="890" y="95" font-size="14" font-family="Arial">gemma-2-9b</text>
<circle cx="872" cy="118" r="6" fill="#d62728" />
<text x="890" y="123" font-size="14" font-family="Arial">llama-3-8b</text>
<circle cx="872" cy="146" r="6" fill="#2ca02c" />
<text x="890" y="151" font-size="14" font-family="Arial">mistral-7b</text>
<circle cx="872" cy="174" r="6" fill="#ff7f0e" />
<text x="890" y="179" font-size="14" font-family="Arial">phi-3</text>
<circle cx="531.1237186654178" cy="218.534" r="6" fill="#1f77b4" />
<text x="539.1237186654178" y="210.534" font-size="11" font-family="Arial" fill="#1f77b4">int4_grouped</text>
<circle cx="788.2758620689655" cy="212.111" r="6" fill="#1f77b4" />
<text x="796.2758620689655" y="204.111" font-size="11" font-family="Arial" fill="#1f77b4">int8_per_channel</text>
<circle cx="787.789316089545" cy="211.8125" r="6" fill="#1f77b4" />
<text x="795.789316089545" y="203.8125" font-size="11" font-family="Arial" fill="#1f77b4">int8_per_tensor</text>
<circle cx="330.0708126956117" cy="211.16500000000002" r="6" fill="#d62728" />
<text x="338.0708126956117" y="203.16500000000002" font-size="11" font-family="Arial" fill="#d62728">int4_grouped</text>
<circle cx="561.8795397745296" cy="214.30200000000002" r="6" fill="#d62728" />
<text x="569.8795397745296" y="206.30200000000002" font-size="11" font-family="Arial" fill="#d62728">int8_per_channel</text>
<circle cx="561.4837123000186" cy="222.46749999999997" r="6" fill="#d62728" />
<text x="569.4837123000186" y="214.46749999999997" font-size="11" font-family="Arial" fill="#d62728">int8_per_tensor</text>
<circle cx="264.9441195095477" cy="199.71299999999997" r="6" fill="#2ca02c" />
<text x="272.9441195095477" y="191.71299999999997" font-size="11" font-family="Arial" fill="#2ca02c">int4_grouped</text>
<circle cx="484.66722181126784" cy="193.48949999999996" r="6" fill="#2ca02c" />
<text x="492.66722181126784" y="185.48949999999996" font-size="11" font-family="Arial" fill="#2ca02c">int8_per_channel</text>
<circle cx="484.29652037579467" cy="193.48949999999996" r="6" fill="#2ca02c" />
<text x="492.29652037579467" y="185.48949999999996" font-size="11" font-family="Arial" fill="#2ca02c">int8_per_tensor</text>
<circle cx="141.72413793103448" cy="198.91649999999998" r="6" fill="#ff7f0e" />
<text x="149.72413793103448" y="190.91649999999998" font-size="11" font-family="Arial" fill="#ff7f0e">int4_grouped</text>
<circle cx="256.7827542811375" cy="191.79649999999998" r="6" fill="#ff7f0e" />
<text x="264.7827542811375" y="183.79649999999998" font-size="11" font-family="Arial" fill="#ff7f0e">int8_per_channel</text>
<circle cx="256.50705857571256" cy="197.7715" r="6" fill="#ff7f0e" />
<text x="264.50705857571256" y="189.7715" font-size="11" font-family="Arial" fill="#ff7f0e">int8_per_tensor</text>
</svg>