<svg xmlns="http://www.w3.org/2000/svg" width="1000" height="600" viewBox="0 0 1000 600">
<rect width="100%" height="100%" fill="white" />
<text x="500.0" y="30" text-anchor="middle" font-size="22" font-family="Arial">MMLU accuracy by quantization method</text>
<line x1="90" y1="520" x2="780" y2="520" stroke="black" stroke-width="2" />
<line x1="90" y1="60" x2="90" y2="520" stroke="black" stroke-width="2" />
<text x="35" y="45" font-size="16" font-family="Arial">Accuracy</text>
<line x1="90" y1="520.0" x2="780" y2="520.0" stroke="#d0d0d0" stroke-width="1" />
<text x="78" y="525.0" text-anchor="end" font-size="14" font-family="Arial">0.0</text>
<line x1="90" y1="428.0" x2="780" y2="428.0" stroke="#d0d0d0" stroke-width="1" />
<text x="78" y="433.0" text-anchor="end" font-size="14" font-family="Arial">0.2</text>
<line x1="90" y1="336.0" x2="780" y2="336.0" stroke="#d0d0d0" stroke-width="1" />
<text x="78" y="341.0" text-anchor="end" font-size="14" font-family="Arial">0.4</text>
<line x1="90" y1="244.0" x2="780" y2="244.0" stroke="#d0d0d0" stroke-width="1" />
<text x="78" y="249.0" text-anchor="end" font-size="14" font-family="Arial">0.6</text>
<line x1="90" y1="152.0" x2="780" y2="152.0" stroke="#d0d0d0" stroke-width="1" />
<text x="78" y="157.0" text-anchor="end" font-size="14" font-family="Arial">0.8</text>
<line x1="90" y1="60.0" x2="780" y2="60.0" stroke="#d0d0d0" stroke-width="1" />
<text x="78" y="65.0" text-anchor="end" font-size="14" font-family="Arial">1.0</text>
<text x="90.0" y="550" text-anchor="middle" font-size="14" font-family="Arial">raw</text>
<text x="320.0" y="550" text-anchor="middle" font-size="14" font-family="Arial">int8_per_channel</text>
<text x="550.0" y="550" text-anchor="middle" font-size="14" font-family="Arial">int8_per_tensor</text>
<text x="780.0" y="550" text-anchor="middle" font-size="14" font-family="Arial">int4_grouped</text>
<polyline points="90.0,317.2228 320.0,304.47942 550.0,291.8998 780.0,392.3385" fill="none" stroke="#1f77b4" stroke-width="3" />
<circle cx="90.0" cy="317.2228" r="5" fill="#1f77b4" />
<circle cx="320.0" cy="304.47942" r="5" fill="#1f77b4" />
<circle cx="550.0" cy="291.8998" r="5" fill="#1f77b4" />
<circle cx="780.0" cy="392.3385" r="5" fill="#1f77b4" />
<line x1="800" y1="90" x2="824" y2="90" stroke="#1f77b4" stroke-width="3" />
<circle cx="812" cy="90" r="5" fill="#1f77b4" />
<text x="835" y="95" font-size="14" font-family="Arial">gemma-2-9b</text>
<polyline points="90.0,382.87124 320.0,379.46448 550.0,394.53362 780.0,390.50401999999997" fill="none" stroke="#d62728" stroke-width="3" />
<circle cx="90.0" cy="382.87124" r="5" fill="#d62728" />
<circle cx="320.0" cy="379.46448" r="5" fill="#d62728" />
<circle cx="550.0" cy="394.53362" r="5" fill="#d62728" />
<circle cx="780.0" cy="390.50401999999997" r="5" fill="#d62728" />
<line x1="800" y1="118" x2="824" y2="118" stroke="#d62728" stroke-width="3" />
<circle cx="812" cy="118" r="5" fill="#d62728" />
<text x="835" y="123" font-size="14" font-family="Arial">llama-3-8b</text>
<polyline points="90.0,368.26072 320.0,372.38876 550.0,365.11616000000004 780.0,352.43856000000005" fill="none" stroke="#2ca02c" stroke-width="3" />
<circle cx="90.0" cy="368.26072" r="5" fill="#2ca02c" />
<circle cx="320.0" cy="372.38876" r="5" fill="#2ca02c" />
<circle cx="550.0" cy="365.11616000000004" r="5" fill="#2ca02c" />
<circle cx="780.0" cy="352.43856000000005" r="5" fill="#2ca02c" />
<line x1="800" y1="146" x2="824" y2="146" stroke="#2ca02c" stroke-width="3" />
<circle cx="812" cy="146" r="5" fill="#2ca02c" />
<text x="835" y="151" font-size="14" font-family="Arial">mistral-7b</text>
<polyline points="90.0,206.03895999999997 320.0,215.47356000000002 550.0,203.18880000000001 780.0,222.25488" fill="none" stroke="#ff7f0e" stroke-width="3" />
<circle cx="90.0" cy="206.03895999999997" r="5" fill="#ff7f0e" />
<circle cx="320.0" cy="215.47356000000002" r="5" fill="#ff7f0e" />
<circle cx="550.0" cy="203.18880000000001" r="5" fill="#ff7f0e" />
<circle cx="780.0" cy="222.25488" r="5" fill="#ff7f0e" />
<line x1="800" y1="174" x2="824" y2="174" stroke="#ff7f0e" stroke-width="3" />
<circle cx="812" cy="174" r="5" fill="#ff7f0e" />
<text x="835" y="179" font-size="14" font-family="Arial">phi-3</text>
<text x="90.0" y="307.2228" text-anchor="middle" font-size="12" font-family="Arial" fill="#1f77b4">0.440820</text>
<text x="320.0" y="294.47942" text-anchor="middle" font-size="12" font-family="Arial" fill="#1f77b4">0.468523</text>
<text x="550.0" y="281.8998" text-anchor="middle" font-size="12" font-family="Arial" fill="#1f77b4">0.495870</text>
<text x="780.0" y="394.50401999999997" text-anchor="middle" font-size="12" font-family="Arial" fill="#1f77b4">0.277525</text>
<text x="90.0" y="372.87124" text-anchor="middle" font-size="12" font-family="Arial" fill="#d62728">0.298106</text>
<text x="320.0" y="376.38876" text-anchor="middle" font-size="12" font-family="Arial" fill="#d62728">0.305512</text>
<text x="550.0" y="384.53362" text-anchor="middle" font-size="12" font-family="Arial" fill="#d62728">0.272753</text>
<text x="780.0" y="380.50401999999997" text-anchor="middle" font-size="12" font-family="Arial" fill="#d62728">0.281513</text>
<text x="90.0" y="358.26072" text-anchor="middle" font-size="12" font-family="Arial" fill="#2ca02c">0.329868</text>
<text x="320.0" y="362.38876" text-anchor="middle" font-size="12" font-family="Arial" fill="#2ca02c">0.320894</text>
<text x="550.0" y="355.11616000000004" text-anchor="middle" font-size="12" font-family="Arial" fill="#2ca02c">0.336704</text>
<text x="780.0" y="342.43856000000005" text-anchor="middle" font-size="12" font-family="Arial" fill="#2ca02c">0.364264</text>
<text x="90.0" y="196.03895999999997" text-anchor="middle" font-size="12" font-family="Arial" fill="#ff7f0e">0.682524</text>
<text x="320.0" y="205.47356000000002" text-anchor="middle" font-size="12" font-family="Arial" fill="#ff7f0e">0.662014</text>
<text x="550.0" y="193.18880000000001" text-anchor="middle" font-size="12" font-family="Arial" fill="#ff7f0e">0.688720</text>
<text x="780.0" y="212.25488" text-anchor="middle" font-size="12" font-family="Arial" fill="#ff7f0e">0.647272</text>
</svg>