<svg xmlns="http://www.w3.org/2000/svg" width="1240" height="528" viewBox="0 0 1240 528">
<rect width="100%" height="100%" fill="white" />
<text x="620.0" y="30" text-anchor="middle" font-size="24" font-family="Arial">MMLU systems tradeoffs vs raw</text>
<text x="620.0" y="50" text-anchor="middle" font-size="14" font-family="Arial" fill="#555">Green is better than raw, red is worse than raw.</text>
<rect x="40" y="60" width="250" height="34" fill="#efefef" stroke="#cfcfcf" />
<text x="52" y="82" font-size="14" font-family="Arial">model / variant</text>
<rect x="290" y="60" width="165" height="34" fill="#efefef" stroke="#cfcfcf" />
<text x="372.5" y="82" text-anchor="middle" font-size="14" font-family="Arial">norm load x</text>
<rect x="455" y="60" width="165" height="34" fill="#efefef" stroke="#cfcfcf" />
<text x="537.5" y="82" text-anchor="middle" font-size="14" font-family="Arial">load x</text>
<rect x="620" y="60" width="165" height="34" fill="#efefef" stroke="#cfcfcf" />
<text x="702.5" y="82" text-anchor="middle" font-size="14" font-family="Arial">eval x</text>
<rect x="785" y="60" width="165" height="34" fill="#efefef" stroke="#cfcfcf" />
<text x="867.5" y="82" text-anchor="middle" font-size="14" font-family="Arial">ex/s x</text>
<rect x="950" y="60" width="165" height="34" fill="#efefef" stroke="#cfcfcf" />
<text x="1032.5" y="82" text-anchor="middle" font-size="14" font-family="Arial">cuda alloc x</text>
<rect x="40" y="94" width="250" height="34" fill="#ffffff" stroke="#d8d8d8" />
<text x="52" y="116" font-size="13" font-family="Arial" fill="#2a5b8a">gemma-2-9b | i8-channel</text>
<rect x="290" y="94" width="165" height="34" fill="#e1b7b7" stroke="#d8d8d8" />
<text x="372.5" y="116" text-anchor="middle" font-size="13" font-family="Arial">3.29x</text>
<rect x="455" y="94" width="165" height="34" fill="#e1b7b7" stroke="#d8d8d8" />
<text x="537.5" y="116" text-anchor="middle" font-size="13" font-family="Arial">3.29x</text>
<rect x="620" y="94" width="165" height="34" fill="#dba8a8" stroke="#d8d8d8" />
<text x="702.5" y="116" text-anchor="middle" font-size="13" font-family="Arial">5.43x</text>
<rect x="785" y="94" width="165" height="34" fill="#efd8d8" stroke="#d8d8d8" />
<text x="867.5" y="116" text-anchor="middle" font-size="13" font-family="Arial">0.18x</text>
<rect x="950" y="94" width="165" height="34" fill="#edd4d4" stroke="#d8d8d8" />
<text x="1032.5" y="116" text-anchor="middle" font-size="13" font-family="Arial">2.00x</text>
<rect x="40" y="128" width="250" height="34" fill="#fafafa" stroke="#d8d8d8" />
<text x="52" y="150" font-size="13" font-family="Arial" fill="#2a5b8a">gemma-2-9b | i8-tensor</text>
<rect x="290" y="128" width="165" height="34" fill="#dba8a8" stroke="#d8d8d8" />
<text x="372.5" y="150" text-anchor="middle" font-size="13" font-family="Arial">5.30x</text>
<rect x="455" y="128" width="165" height="34" fill="#dba8a8" stroke="#d8d8d8" />
<text x="537.5" y="150" text-anchor="middle" font-size="13" font-family="Arial">5.30x</text>
<rect x="620" y="128" width="165" height="34" fill="#dba8a8" stroke="#d8d8d8" />
<text x="702.5" y="150" text-anchor="middle" font-size="13" font-family="Arial">5.43x</text>
<rect x="785" y="128" width="165" height="34" fill="#efd8d8" stroke="#d8d8d8" />
<text x="867.5" y="150" text-anchor="middle" font-size="13" font-family="Arial">0.18x</text>
<rect x="950" y="128" width="165" height="34" fill="#edd4d4" stroke="#d8d8d8" />
<text x="1032.5" y="150" text-anchor="middle" font-size="13" font-family="Arial">2.00x</text>
<rect x="40" y="162" width="250" height="34" fill="#ffffff" stroke="#d8d8d8" />
<text x="52" y="184" font-size="13" font-family="Arial" fill="#2a5b8a">gemma-2-9b | i4-grouped</text>
<rect x="290" y="162" width="165" height="34" fill="#dba8a8" stroke="#d8d8d8" />
<text x="372.5" y="184" text-anchor="middle" font-size="13" font-family="Arial">16.47x</text>
<rect x="455" y="162" width="165" height="34" fill="#dba8a8" stroke="#d8d8d8" />
<text x="537.5" y="184" text-anchor="middle" font-size="13" font-family="Arial">16.47x</text>
<rect x="620" y="162" width="165" height="34" fill="#dba8a8" stroke="#d8d8d8" />
<text x="702.5" y="184" text-anchor="middle" font-size="13" font-family="Arial">5.44x</text>
<rect x="785" y="162" width="165" height="34" fill="#efd8d8" stroke="#d8d8d8" />
<text x="867.5" y="184" text-anchor="middle" font-size="13" font-family="Arial">0.18x</text>
<rect x="950" y="162" width="165" height="34" fill="#edd4d4" stroke="#d8d8d8" />
<text x="1032.5" y="184" text-anchor="middle" font-size="13" font-family="Arial">2.00x</text>
<rect x="40" y="196" width="250" height="34" fill="#fafafa" stroke="#d8d8d8" />
<text x="52" y="218" font-size="13" font-family="Arial" fill="#d17c2f">llama-3-8b | i8-channel</text>
<rect x="290" y="196" width="165" height="34" fill="#dba8a8" stroke="#d8d8d8" />
<text x="372.5" y="218" text-anchor="middle" font-size="13" font-family="Arial">74.19x</text>
<rect x="455" y="196" width="165" height="34" fill="#dba8a8" stroke="#d8d8d8" />
<text x="537.5" y="218" text-anchor="middle" font-size="13" font-family="Arial">74.19x</text>
<rect x="620" y="196" width="165" height="34" fill="#f6eaea" stroke="#d8d8d8" />
<text x="702.5" y="218" text-anchor="middle" font-size="13" font-family="Arial">1.00x</text>
<rect x="785" y="196" width="165" height="34" fill="#e8f0eb" stroke="#d8d8d8" />
<text x="867.5" y="218" text-anchor="middle" font-size="13" font-family="Arial">1.00x</text>
<rect x="950" y="196" width="165" height="34" fill="#e8f0eb" stroke="#d8d8d8" />
<text x="1032.5" y="218" text-anchor="middle" font-size="13" font-family="Arial">1.00x</text>
<rect x="40" y="230" width="250" height="34" fill="#ffffff" stroke="#d8d8d8" />
<text x="52" y="252" font-size="13" font-family="Arial" fill="#d17c2f">llama-3-8b | i8-tensor</text>
<rect x="290" y="230" width="165" height="34" fill="#dba8a8" stroke="#d8d8d8" />
<text x="372.5" y="252" text-anchor="middle" font-size="13" font-family="Arial">71.58x</text>
<rect x="455" y="230" width="165" height="34" fill="#dba8a8" stroke="#d8d8d8" />
<text x="537.5" y="252" text-anchor="middle" font-size="13" font-family="Arial">71.58x</text>
<rect x="620" y="230" width="165" height="34" fill="#f6eaea" stroke="#d8d8d8" />
<text x="702.5" y="252" text-anchor="middle" font-size="13" font-family="Arial">1.00x</text>
<rect x="785" y="230" width="165" height="34" fill="#f6eaea" stroke="#d8d8d8" />
<text x="867.5" y="252" text-anchor="middle" font-size="13" font-family="Arial">1.00x</text>
<rect x="950" y="230" width="165" height="34" fill="#e8f0eb" stroke="#d8d8d8" />
<text x="1032.5" y="252" text-anchor="middle" font-size="13" font-family="Arial">1.00x</text>
<rect x="40" y="264" width="250" height="34" fill="#fafafa" stroke="#d8d8d8" />
<text x="52" y="286" font-size="13" font-family="Arial" fill="#d17c2f">llama-3-8b | i4-grouped</text>
<rect x="290" y="264" width="165" height="34" fill="#dba8a8" stroke="#d8d8d8" />
<text x="372.5" y="286" text-anchor="middle" font-size="13" font-family="Arial">200.92x</text>
<rect x="455" y="264" width="165" height="34" fill="#dba8a8" stroke="#d8d8d8" />
<text x="537.5" y="286" text-anchor="middle" font-size="13" font-family="Arial">200.92x</text>
<rect x="620" y="264" width="165" height="34" fill="#f6eaea" stroke="#d8d8d8" />
<text x="702.5" y="286" text-anchor="middle" font-size="13" font-family="Arial">1.00x</text>
<rect x="785" y="264" width="165" height="34" fill="#f6eaea" stroke="#d8d8d8" />
<text x="867.5" y="286" text-anchor="middle" font-size="13" font-family="Arial">1.00x</text>
<rect x="950" y="264" width="165" height="34" fill="#e8f0eb" stroke="#d8d8d8" />
<text x="1032.5" y="286" text-anchor="middle" font-size="13" font-family="Arial">1.00x</text>
<rect x="40" y="298" width="250" height="34" fill="#ffffff" stroke="#d8d8d8" />
<text x="52" y="320" font-size="13" font-family="Arial" fill="#2e7d5a">mistral-7b | i8-channel</text>
<rect x="290" y="298" width="165" height="34" fill="#dba8a8" stroke="#d8d8d8" />
<text x="372.5" y="320" text-anchor="middle" font-size="13" font-family="Arial">21.70x</text>
<rect x="455" y="298" width="165" height="34" fill="#dba8a8" stroke="#d8d8d8" />
<text x="537.5" y="320" text-anchor="middle" font-size="13" font-family="Arial">21.70x</text>
<rect x="620" y="298" width="165" height="34" fill="#e8f0eb" stroke="#d8d8d8" />
<text x="702.5" y="320" text-anchor="middle" font-size="13" font-family="Arial">1.00x</text>
<rect x="785" y="298" width="165" height="34" fill="#e8f0eb" stroke="#d8d8d8" />
<text x="867.5" y="320" text-anchor="middle" font-size="13" font-family="Arial">1.00x</text>
<rect x="950" y="298" width="165" height="34" fill="#e8f0eb" stroke="#d8d8d8" />
<text x="1032.5" y="320" text-anchor="middle" font-size="13" font-family="Arial">1.00x</text>
<rect x="40" y="332" width="250" height="34" fill="#fafafa" stroke="#d8d8d8" />
<text x="52" y="354" font-size="13" font-family="Arial" fill="#2e7d5a">mistral-7b | i8-tensor</text>
<rect x="290" y="332" width="165" height="34" fill="#dba8a8" stroke="#d8d8d8" />
<text x="372.5" y="354" text-anchor="middle" font-size="13" font-family="Arial">21.74x</text>
<rect x="455" y="332" width="165" height="34" fill="#dba8a8" stroke="#d8d8d8" />
<text x="537.5" y="354" text-anchor="middle" font-size="13" font-family="Arial">21.74x</text>
<rect x="620" y="332" width="165" height="34" fill="#e8f0eb" stroke="#d8d8d8" />
<text x="702.5" y="354" text-anchor="middle" font-size="13" font-family="Arial">0.99x</text>
<rect x="785" y="332" width="165" height="34" fill="#e8f0eb" stroke="#d8d8d8" />
<text x="867.5" y="354" text-anchor="middle" font-size="13" font-family="Arial">1.01x</text>
<rect x="950" y="332" width="165" height="34" fill="#e8f0eb" stroke="#d8d8d8" />
<text x="1032.5" y="354" text-anchor="middle" font-size="13" font-family="Arial">1.00x</text>
<rect x="40" y="366" width="250" height="34" fill="#ffffff" stroke="#d8d8d8" />
<text x="52" y="388" font-size="13" font-family="Arial" fill="#2e7d5a">mistral-7b | i4-grouped</text>
<rect x="290" y="366" width="165" height="34" fill="#dba8a8" stroke="#d8d8d8" />
<text x="372.5" y="388" text-anchor="middle" font-size="13" font-family="Arial">56.42x</text>
<rect x="455" y="366" width="165" height="34" fill="#dba8a8" stroke="#d8d8d8" />
<text x="537.5" y="388" text-anchor="middle" font-size="13" font-family="Arial">56.42x</text>
<rect x="620" y="366" width="165" height="34" fill="#f6eaea" stroke="#d8d8d8" />
<text x="702.5" y="388" text-anchor="middle" font-size="13" font-family="Arial">1.00x</text>
<rect x="785" y="366" width="165" height="34" fill="#f6eaea" stroke="#d8d8d8" />
<text x="867.5" y="388" text-anchor="middle" font-size="13" font-family="Arial">1.00x</text>
<rect x="950" y="366" width="165" height="34" fill="#e8f0eb" stroke="#d8d8d8" />
<text x="1032.5" y="388" text-anchor="middle" font-size="13" font-family="Arial">1.00x</text>
<rect x="40" y="400" width="250" height="34" fill="#fafafa" stroke="#d8d8d8" />
<text x="52" y="422" font-size="13" font-family="Arial" fill="#8b3d88">phi-3 | i8-channel</text>
<rect x="290" y="400" width="165" height="34" fill="#e4ede8" stroke="#d8d8d8" />
<text x="372.5" y="422" text-anchor="middle" font-size="13" font-family="Arial">0.83x</text>
<rect x="455" y="400" width="165" height="34" fill="#e4ede8" stroke="#d8d8d8" />
<text x="537.5" y="422" text-anchor="middle" font-size="13" font-family="Arial">0.83x</text>
<rect x="620" y="400" width="165" height="34" fill="#d9e6df" stroke="#d8d8d8" />
<text x="702.5" y="422" text-anchor="middle" font-size="13" font-family="Arial">0.36x</text>
<rect x="785" y="400" width="165" height="34" fill="#bed6c8" stroke="#d8d8d8" />
<text x="867.5" y="422" text-anchor="middle" font-size="13" font-family="Arial">2.75x</text>
<rect x="950" y="400" width="165" height="34" fill="#e8f0eb" stroke="#d8d8d8" />
<text x="1032.5" y="422" text-anchor="middle" font-size="13" font-family="Arial">1.00x</text>
<rect x="40" y="434" width="250" height="34" fill="#ffffff" stroke="#d8d8d8" />
<text x="52" y="456" font-size="13" font-family="Arial" fill="#8b3d88">phi-3 | i8-tensor</text>
<rect x="290" y="434" width="165" height="34" fill="#e4eee9" stroke="#d8d8d8" />
<text x="372.5" y="456" text-anchor="middle" font-size="13" font-family="Arial">0.86x</text>
<rect x="455" y="434" width="165" height="34" fill="#e4eee9" stroke="#d8d8d8" />
<text x="537.5" y="456" text-anchor="middle" font-size="13" font-family="Arial">0.86x</text>
<rect x="620" y="434" width="165" height="34" fill="#d9e6df" stroke="#d8d8d8" />
<text x="702.5" y="456" text-anchor="middle" font-size="13" font-family="Arial">0.36x</text>
<rect x="785" y="434" width="165" height="34" fill="#bed6c8" stroke="#d8d8d8" />
<text x="867.5" y="456" text-anchor="middle" font-size="13" font-family="Arial">2.74x</text>
<rect x="950" y="434" width="165" height="34" fill="#e8f0eb" stroke="#d8d8d8" />
<text x="1032.5" y="456" text-anchor="middle" font-size="13" font-family="Arial">1.00x</text>
<rect x="40" y="468" width="250" height="34" fill="#fafafa" stroke="#d8d8d8" />
<text x="52" y="490" font-size="13" font-family="Arial" fill="#8b3d88">phi-3 | i4-grouped</text>
<rect x="290" y="468" width="165" height="34" fill="#e9caca" stroke="#d8d8d8" />
<text x="372.5" y="490" text-anchor="middle" font-size="13" font-family="Arial">2.44x</text>
<rect x="455" y="468" width="165" height="34" fill="#e9caca" stroke="#d8d8d8" />
<text x="537.5" y="490" text-anchor="middle" font-size="13" font-family="Arial">2.44x</text>
<rect x="620" y="468" width="165" height="34" fill="#d9e6df" stroke="#d8d8d8" />
<text x="702.5" y="490" text-anchor="middle" font-size="13" font-family="Arial">0.37x</text>
<rect x="785" y="468" width="165" height="34" fill="#bfd6c9" stroke="#d8d8d8" />
<text x="867.5" y="490" text-anchor="middle" font-size="13" font-family="Arial">2.72x</text>
<rect x="950" y="468" width="165" height="34" fill="#e8f0eb" stroke="#d8d8d8" />
<text x="1032.5" y="490" text-anchor="middle" font-size="13" font-family="Arial">1.00x</text>
</svg>